<svg width="39" height="37" xmlns="http://www.w3.org/2000/svg" xmlns:xlink="http://www.w3.org/1999/xlink"><defs><path id="a" d="M31.482 24.626V.5H.476v24.125z"/></defs><g fill="none" fill-rule="evenodd"><g transform="translate(7.056 -.47)"><mask id="b" fill="#fff"><use xlink:href="#a"/></mask><path d="M30.594 4.773c-.314-1.943-1.486-3.113-3.374-3.38C27.174 1.382 22.576.5 15.36.5c-7.214 0-11.812.882-11.843.889-1.477.21-2.507.967-3.042 2.192a83.103 83.103 0 019.312-.503c6.994 0 11.647.804 12.33.93 3.079.462 5.22 2.598 5.738 5.728.224 1.02.932 4.606.932 8.887 0 2.292-.206 4.395-.428 6.002 1.22-.516 1.988-1.55 2.23-3.044.008-.037.893-3.814.893-8.415 0-4.6-.885-8.377-.89-8.394" fill="#FFF" mask="url(#b)"/></g><path d="M32.076 9.76c-.314-1.943-1.486-3.114-3.374-3.382-.045-.009-4.644-.89-11.858-.89S5.03 6.369 5 6.376c-1.903.27-3.075 1.44-3.385 3.363-.009.038-.893 3.814-.893 8.415 0 4.6.884 8.377.889 8.394.314 1.944 1.486 3.113 3.374 3.381.036.008 3.019.578 7.933.802l2.928 5.071a1.151 1.151 0 001.994 0l2.928-5.07c4.913-.225 7.894-.795 7.918-.8 1.903-.27 3.075-1.44 3.385-3.364.009-.037.893-3.813.893-8.414 0-4.601-.884-8.377-.889-8.394" fill="#FFF"/></g></svg>